<svg width="190" height="285" viewBox="0 0 190 285" fill="none" xmlns="http://www.w3.org/2000/svg">
<rect x="0.5" y="0.5" width="94" height="94" rx="47" fill="#684848"/>
<rect x="0.5" y="0.5" width="94" height="94" rx="47" stroke="#DED6D6"/>
<rect x="0.5" y="0.5" width="94" height="94" rx="9.5" fill="#D96B3C" stroke="black"/>
<rect x="0.5" y="190.5" width="94" height="94" rx="47" fill="#684848"/>
<rect x="0.5" y="190.5" width="94" height="94" rx="47" stroke="#DED6D6"/>
<rect x="0.5" y="190.5" width="94" height="94" rx="9.5" fill="#D96B3C" stroke="black"/>
<rect x="95.5" y="190.5" width="94" height="94" rx="47" fill="#684848"/>
<rect x="95.5" y="190.5" width="94" height="94" rx="47" stroke="#DED6D6"/>
<rect x="95.5" y="190.5" width="94" height="94" rx="9.5" fill="#D96B3C" stroke="black"/>
<rect x="0.5" y="95.5" width="94" height="94" rx="47" fill="#684848"/>
<rect x="0.5" y="95.5" width="94" height="94" rx="47" stroke="#DED6D6"/>
<rect x="0.5" y="95.5" width="94" height="94" rx="9.5" fill="#D96B3C" stroke="black"/>
</svg>
