<svg width="506" height="486" viewBox="0 0 506 486" fill="none" xmlns="http://www.w3.org/2000/svg">
<path d="M212.246 132.335C232.179 104.292 273.821 104.292 293.754 132.335L415.974 304.282C439.505 337.387 415.836 383.25 375.22 383.25H130.78C90.1639 383.25 66.495 337.387 90.026 304.282L212.246 132.335Z" fill="#A6A4A4"/>
<path d="M223.133 65.3117C240.648 52.6011 264.352 52.601 281.867 65.3117L428.237 171.533C455.748 191.498 455.748 232.502 428.237 252.467L281.867 358.688C264.352 371.399 240.648 371.399 223.133 358.688L76.7626 252.467C49.2519 232.502 49.2519 191.498 76.7626 171.533L223.133 65.3117Z" fill="#E5E5E5"/>
<path d="M230.576 121.252C244.687 114.171 261.313 114.171 275.424 121.252L341.626 154.471C365.866 166.634 375.99 195.905 364.445 220.445L348.211 254.951C339.966 272.478 322.338 283.666 302.968 283.666H203.032C183.662 283.666 166.035 272.478 157.789 254.951L141.556 220.445C130.01 195.905 140.134 166.634 164.374 154.471L230.576 121.252Z" fill="#CBCBCB"/>
<path d="M212.246 132.335C232.179 104.292 273.821 104.292 293.754 132.335L415.974 304.282C439.505 337.387 415.836 383.25 375.22 383.25H130.78C90.1639 383.25 66.495 337.387 90.026 304.282L212.246 132.335Z" fill="#ACA40C"/>
<path d="M223.133 65.3117C240.648 52.6011 264.352 52.601 281.867 65.3117L428.237 171.533C455.748 191.498 455.748 232.502 428.237 252.467L281.867 358.688C264.352 371.399 240.648 371.399 223.133 358.688L76.7626 252.467C49.2519 232.502 49.2519 191.498 76.7626 171.533L223.133 65.3117Z" fill="#D4C557"/>
<path d="M230.576 121.252C244.687 114.171 261.313 114.171 275.424 121.252L341.626 154.471C365.866 166.634 375.99 195.905 364.445 220.445L348.211 254.951C339.966 272.478 322.338 283.666 302.968 283.666H203.032C183.662 283.666 166.035 272.478 157.789 254.951L141.556 220.445C130.01 195.905 140.134 166.634 164.374 154.471L230.576 121.252Z" fill="#E6E061"/>
</svg>
